<svg width="33" height="33" viewBox="0 0 33 33" fill="none" xmlns="http://www.w3.org/2000/svg">
<path fill-rule="evenodd" clip-rule="evenodd" d="M3.0921 3.15147C2.83391 3.06067 2.55023 3.07615 2.30345 3.1945C2.05668 3.31286 1.86703 3.52441 1.77623 3.78259C1.68542 4.04078 1.7009 4.32447 1.81926 4.57124C1.93762 4.81802 2.14916 5.00767 2.40735 5.09847L2.7676 5.22359C3.68473 5.54672 4.28835 5.75984 4.73248 5.97847C5.1491 6.18334 5.33335 6.34972 5.45435 6.52572C5.5781 6.70722 5.67435 6.95747 5.72935 7.45659C5.78435 7.97909 5.78573 8.65972 5.78573 9.67722V13.42C5.78573 15.4178 5.80498 16.8575 5.99335 17.9575C6.1941 19.1317 6.5956 19.9732 7.34773 20.7652C8.16448 21.6273 9.19848 22.0027 10.4319 22.176C11.6116 22.3437 13.1104 22.3437 14.9597 22.3437H22.393C23.4132 22.3437 24.2712 22.3437 24.9642 22.2585C25.7026 22.1691 26.3736 21.9711 26.9607 21.494C27.5465 21.0155 27.8751 20.3981 28.1116 19.6941C28.3357 19.0313 28.509 18.1912 28.7152 17.1916L29.4137 13.7967L29.4165 13.7898L29.4302 13.7183C29.6571 12.584 29.8469 11.6297 29.895 10.8625C29.9445 10.0567 29.8524 9.26197 29.3271 8.57997C29.004 8.15922 28.5502 7.92135 28.1364 7.77697C27.6892 7.62994 27.2271 7.5331 26.7586 7.48822C25.814 7.38372 24.6659 7.38372 23.5411 7.38372H7.79185C7.78772 7.33418 7.78314 7.28468 7.7781 7.23522C7.70385 6.55184 7.54435 5.92897 7.15523 5.36247C6.76473 4.79047 6.24498 4.42472 5.63998 4.12634C5.07348 3.84859 4.35298 3.59559 3.5046 3.29722L3.0921 3.15147ZM7.8496 9.44622H23.4971C24.6741 9.44622 25.7109 9.44759 26.529 9.53834C26.936 9.58509 27.2399 9.64835 27.453 9.7226C27.54 9.74749 27.6219 9.78752 27.695 9.84084C27.7802 9.95359 27.871 10.1571 27.8352 10.736C27.7981 11.3465 27.6386 12.1605 27.3939 13.3842V13.387L26.7064 16.7145C26.4864 17.7911 26.3351 18.5061 26.1577 19.0355C25.9886 19.5387 25.8291 19.7546 25.6572 19.8948C25.4853 20.0351 25.2406 20.1478 24.7154 20.2111C24.1599 20.2798 23.4297 20.2812 22.3311 20.2812H15.0395C13.0911 20.2812 11.7395 20.2785 10.722 20.1341C9.73748 19.9952 9.2191 19.7422 8.84373 19.3462C8.40373 18.8815 8.16585 18.4277 8.0256 17.6096C7.87435 16.7158 7.84823 15.4673 7.84823 13.42L7.8496 9.44622ZM10.3122 29.9062C9.49171 29.9062 8.7048 29.5803 8.12461 29.0001C7.54442 28.4199 7.21848 27.633 7.21848 26.8125C7.21848 25.992 7.54442 25.2051 8.12461 24.6249C8.7048 24.0447 9.49171 23.7187 10.3122 23.7187C11.1327 23.7187 11.9196 24.0447 12.4998 24.6249C13.08 25.2051 13.406 25.992 13.406 26.8125C13.406 27.633 13.08 28.4199 12.4998 29.0001C11.9196 29.5803 11.1327 29.9062 10.3122 29.9062ZM9.28098 26.8125C9.28098 27.086 9.38962 27.3483 9.58302 27.5417C9.77642 27.7351 10.0387 27.8437 10.3122 27.8437C10.5857 27.8437 10.848 27.7351 11.0414 27.5417C11.2348 27.3483 11.3435 27.086 11.3435 26.8125C11.3435 26.539 11.2348 26.2767 11.0414 26.0833C10.848 25.8899 10.5857 25.7812 10.3122 25.7812C10.0387 25.7812 9.77642 25.8899 9.58302 26.0833C9.38962 26.2767 9.28098 26.539 9.28098 26.8125ZM22.6872 29.9062C21.8667 29.9062 21.0798 29.5803 20.4996 29.0001C19.9194 28.4199 19.5935 27.633 19.5935 26.8125C19.5935 25.992 19.9194 25.2051 20.4996 24.6249C21.0798 24.0447 21.8667 23.7187 22.6872 23.7187C23.5077 23.7187 24.2946 24.0447 24.8748 24.6249C25.455 25.2051 25.781 25.992 25.781 26.8125C25.781 27.633 25.455 28.4199 24.8748 29.0001C24.2946 29.5803 23.5077 29.9062 22.6872 29.9062ZM21.656 26.8125C21.656 27.086 21.7646 27.3483 21.958 27.5417C22.1514 27.7351 22.4137 27.8437 22.6872 27.8437C22.9607 27.8437 23.223 27.7351 23.4164 27.5417C23.6098 27.3483 23.7185 27.086 23.7185 26.8125C23.7185 26.539 23.6098 26.2767 23.4164 26.0833C23.223 25.8899 22.9607 25.7812 22.6872 25.7812C22.4137 25.7812 22.1514 25.8899 21.958 26.0833C21.7646 26.2767 21.656 26.539 21.656 26.8125Z" fill="#FF6543"/>
</svg>
