<svg width="27" height="27" viewBox="0 0 27 27" fill="none" xmlns="http://www.w3.org/2000/svg">
<path fill-rule="evenodd" clip-rule="evenodd" d="M2.5307 2.57834C2.31945 2.50405 2.08735 2.51671 1.88544 2.61355C1.68354 2.71039 1.52837 2.88347 1.45407 3.09472C1.37978 3.30596 1.39245 3.53807 1.48929 3.73997C1.58612 3.94188 1.7592 4.09705 1.97045 4.17134L2.2652 4.27372C3.01557 4.53809 3.50945 4.71247 3.87282 4.89134C4.2137 5.05897 4.36445 5.19509 4.46345 5.33909C4.5647 5.48759 4.64345 5.69234 4.68845 6.10072C4.73345 6.52822 4.73457 7.08509 4.73457 7.91759V10.9798C4.73457 12.6145 4.75032 13.7923 4.90445 14.6923C5.0687 15.6531 5.3972 16.3416 6.01257 16.9896C6.68082 17.695 7.52682 18.0021 8.53595 18.1438C9.5012 18.2811 10.7275 18.2811 12.2406 18.2811H18.3223C19.1571 18.2811 19.8591 18.2811 20.4261 18.2113C21.0302 18.1382 21.5792 17.9762 22.0596 17.5858C22.5388 17.1943 22.8077 16.6892 23.0012 16.1132C23.1846 15.571 23.3263 14.8836 23.4951 14.0657L24.0666 11.2881L24.0688 11.2825L24.0801 11.224C24.2657 10.2958 24.421 9.51509 24.4603 8.88734C24.5008 8.22809 24.4255 7.57784 23.9957 7.01984C23.7313 6.67559 23.3601 6.48097 23.0215 6.36284C22.6556 6.24255 22.2775 6.16331 21.8942 6.12659C21.1213 6.04109 20.182 6.04109 19.2617 6.04109H6.37595C6.37257 6.00056 6.36882 5.96006 6.3647 5.91959C6.30395 5.36047 6.17345 4.85084 5.85507 4.38734C5.53557 3.91934 5.11032 3.62009 4.61532 3.37597C4.15182 3.14872 3.56232 2.94172 2.8682 2.69759L2.5307 2.57834ZM6.4232 7.72859H19.2257C20.1887 7.72859 21.037 7.72972 21.7063 7.80397C22.0393 7.84222 22.288 7.89397 22.4623 7.95472C22.5335 7.97508 22.6005 8.00783 22.6603 8.05147C22.7301 8.14372 22.8043 8.31022 22.7751 8.78384C22.7447 9.28334 22.6142 9.94934 22.4139 10.9506V10.9528L21.8514 13.6753C21.6714 14.5562 21.5477 15.1412 21.4026 15.5743C21.2642 15.9861 21.1337 16.1627 20.9931 16.2775C20.8524 16.3922 20.6522 16.4845 20.2225 16.5362C19.768 16.5925 19.1706 16.5936 18.2717 16.5936H12.3058C10.7117 16.5936 9.60582 16.5913 8.77332 16.4732C7.96782 16.3596 7.5437 16.1526 7.23657 15.8286C6.87657 15.4483 6.68195 15.0771 6.5672 14.4077C6.44345 13.6765 6.42207 12.655 6.42207 10.9798L6.4232 7.72859ZM8.43807 24.4686C7.76675 24.4686 7.12291 24.2019 6.64821 23.7272C6.17351 23.2525 5.90682 22.6087 5.90682 21.9373C5.90682 21.266 6.17351 20.6222 6.64821 20.1475C7.12291 19.6728 7.76675 19.4061 8.43807 19.4061C9.1094 19.4061 9.75324 19.6728 10.2279 20.1475C10.7026 20.6222 10.9693 21.266 10.9693 21.9373C10.9693 22.6087 10.7026 23.2525 10.2279 23.7272C9.75324 24.2019 9.1094 24.4686 8.43807 24.4686ZM7.59432 21.9373C7.59432 22.1611 7.68322 22.3757 7.84145 22.534C7.99969 22.6922 8.2143 22.7811 8.43807 22.7811C8.66185 22.7811 8.87646 22.6922 9.0347 22.534C9.19293 22.3757 9.28183 22.1611 9.28183 21.9373C9.28183 21.7136 9.19293 21.499 9.0347 21.3407C8.87646 21.1825 8.66185 21.0936 8.43807 21.0936C8.2143 21.0936 7.99969 21.1825 7.84145 21.3407C7.68322 21.499 7.59432 21.7136 7.59432 21.9373ZM18.5631 24.4686C17.8917 24.4686 17.2479 24.2019 16.7732 23.7272C16.2985 23.2525 16.0318 22.6087 16.0318 21.9373C16.0318 21.266 16.2985 20.6222 16.7732 20.1475C17.2479 19.6728 17.8917 19.4061 18.5631 19.4061C19.2344 19.4061 19.8782 19.6728 20.3529 20.1475C20.8276 20.6222 21.0943 21.266 21.0943 21.9373C21.0943 22.6087 20.8276 23.2525 20.3529 23.7272C19.8782 24.2019 19.2344 24.4686 18.5631 24.4686ZM17.7193 21.9373C17.7193 22.1611 17.8082 22.3757 17.9665 22.534C18.1247 22.6922 18.3393 22.7811 18.5631 22.7811C18.7869 22.7811 19.0015 22.6922 19.1597 22.534C19.3179 22.3757 19.4068 22.1611 19.4068 21.9373C19.4068 21.7136 19.3179 21.499 19.1597 21.3407C19.0015 21.1825 18.7869 21.0936 18.5631 21.0936C18.3393 21.0936 18.1247 21.1825 17.9665 21.3407C17.8082 21.499 17.7193 21.7136 17.7193 21.9373Z" fill="#272727"/>
</svg>
