<svg width="33" height="33" viewBox="0 0 33 33" fill="none" xmlns="http://www.w3.org/2000/svg">
<path fill-rule="evenodd" clip-rule="evenodd" d="M16.5 3.78125C13.1268 3.78125 9.89172 5.12126 7.5065 7.50649C5.12127 9.89171 3.78126 13.1268 3.78126 16.5C3.78126 18.5364 4.25976 20.4586 5.10814 22.1623C5.44914 22.847 5.57976 23.6637 5.36526 24.4681L4.54576 27.5275C4.51135 27.6557 4.51128 27.7906 4.54555 27.9189C4.57982 28.0471 4.64723 28.164 4.74101 28.2579C4.83478 28.3518 4.95161 28.4194 5.07977 28.4539C5.20794 28.4883 5.34291 28.4885 5.47114 28.4543L8.53326 27.6348C9.30709 27.4367 10.1266 27.5281 10.8378 27.8919C12.5967 28.7675 14.5352 29.2218 16.5 29.2188C19.8732 29.2188 23.1083 27.8787 25.4935 25.4935C27.8788 23.1083 29.2188 19.8732 29.2188 16.5C29.2188 13.1268 27.8788 9.89171 25.4935 7.50649C23.1083 5.12126 19.8732 3.78125 16.5 3.78125ZM1.71876 16.5C1.71876 8.33663 8.33664 1.71875 16.5 1.71875C24.6634 1.71875 31.2813 8.33663 31.2813 16.5C31.2813 24.6634 24.6634 31.2812 16.5 31.2812C14.1378 31.2812 11.902 30.7257 9.91788 29.7385C9.65656 29.5993 9.35347 29.5602 9.06539 29.6285L6.00464 30.4466C3.90914 31.0076 1.99239 29.0909 2.55339 26.9954L3.37289 23.9346C3.44115 23.6465 3.40204 23.3434 3.26289 23.0821C2.24464 21.0375 1.716 18.7841 1.71876 16.5ZM21.3538 13.0213C21.5469 13.2146 21.6554 13.4767 21.6554 13.75C21.6554 14.0233 21.5469 14.2854 21.3538 14.4787L15.8538 19.9788C15.663 20.1697 15.4049 20.2783 15.135 20.2811C14.865 20.284 14.6048 20.1808 14.41 19.9939L11.66 17.3539C11.4627 17.1642 11.3488 16.904 11.3434 16.6304C11.338 16.3568 11.4415 16.0923 11.6311 15.895C11.8208 15.6977 12.081 15.5838 12.3546 15.5784C12.6282 15.573 12.8927 15.6765 13.09 15.8661L15.1113 17.8062L19.8963 13.0213C20.0896 12.8281 20.3517 12.7197 20.625 12.7197C20.8983 12.7197 21.1604 12.8281 21.3538 13.0213Z" fill="#FF6543"/>
</svg>
