<svg width="27" height="27" viewBox="0 0 27 27" fill="none" xmlns="http://www.w3.org/2000/svg">
<path fill-rule="evenodd" clip-rule="evenodd" d="M6.327 4.97702C4.46062 5.82977 3.09375 7.85927 3.09375 10.2791C3.09375 12.7508 4.10625 14.6565 5.55525 16.29C6.75112 17.6355 8.19787 18.7515 9.60862 19.8383C9.94387 20.097 10.2769 20.3546 10.6042 20.6123C11.196 21.0791 11.7236 21.4875 12.2332 21.7856C12.7417 22.0826 13.1512 22.2188 13.5 22.2188C13.8487 22.2188 14.2582 22.0838 14.7667 21.7856C15.2764 21.4875 15.804 21.0791 16.3957 20.6123C16.722 20.3535 17.0561 20.097 17.3914 19.8394C18.8021 18.7504 20.2489 17.6355 21.4447 16.29C22.8949 14.6565 23.9062 12.7508 23.9062 10.2791C23.9062 7.86039 22.5394 5.82977 20.673 4.97702C18.8595 4.14789 16.4227 4.36727 14.1075 6.77364C14.0288 6.8553 13.9344 6.92026 13.83 6.96462C13.7257 7.00899 13.6134 7.03185 13.5 7.03185C13.3866 7.03185 13.2743 7.00899 13.1699 6.96462C13.0656 6.92026 12.9712 6.8553 12.8925 6.77364C10.5772 4.36727 8.1405 4.14789 6.327 4.97702ZM13.5 5.01752C10.899 2.68877 7.98637 2.36252 5.625 3.44139C3.13425 4.58327 1.40625 7.22927 1.40625 10.2803C1.40625 13.2784 2.655 15.5666 4.29412 17.4116C5.60587 18.8888 7.21125 20.1251 8.62987 21.2164C8.95162 21.4639 9.26325 21.7046 9.55912 21.9386C10.1362 22.3931 10.755 22.8769 11.3816 23.2436C12.0082 23.6093 12.7237 23.9074 13.5 23.9074C14.2762 23.9074 14.9917 23.6093 15.6184 23.2436C16.2461 22.8769 16.8637 22.3931 17.4409 21.9386C17.749 21.6958 18.0588 21.4551 18.3701 21.2164C19.7876 20.1251 21.3941 18.8876 22.7059 17.4116C24.345 15.5666 25.5937 13.2784 25.5937 10.2803C25.5937 7.22927 23.8669 4.58327 21.375 3.44364C19.0136 2.36364 16.101 2.68989 13.5 5.01752Z" fill="#272727"/>
</svg>
