<svg width="25" height="25" viewBox="0 0 25 25" fill="none" xmlns="http://www.w3.org/2000/svg">
<path fill-rule="evenodd" clip-rule="evenodd" d="M11.5313 1.6875C10.2386 1.6875 8.95851 1.94212 7.76421 2.43681C6.56991 2.93151 5.48475 3.65659 4.57067 4.57067C3.65659 5.48475 2.93151 6.56991 2.43681 7.76421C1.94212 8.95851 1.6875 10.2386 1.6875 11.5313C1.6875 12.824 1.94212 14.104 2.43681 15.2983C2.93151 16.4926 3.65659 17.5778 4.57067 18.4918C5.48475 19.4059 6.56991 20.131 7.76421 20.6257C8.95851 21.1204 10.2386 21.375 11.5313 21.375C14.142 21.375 16.6458 20.3379 18.4918 18.4918C20.3379 16.6458 21.375 14.142 21.375 11.5313C21.375 8.92053 20.3379 6.41673 18.4918 4.57067C16.6458 2.72461 14.142 1.6875 11.5313 1.6875ZM0 11.5313C0 5.16375 5.16375 0 11.5313 0C17.8988 0 23.0625 5.16375 23.0625 11.5313C23.0625 14.4113 22.0061 17.046 20.2601 19.0665L23.94 22.7475C24.0229 22.8247 24.0894 22.9179 24.1355 23.0214C24.1816 23.1249 24.2064 23.2366 24.2084 23.3499C24.2104 23.4632 24.1896 23.5757 24.1471 23.6808C24.1047 23.7859 24.0415 23.8813 23.9614 23.9614C23.8813 24.0415 23.7859 24.1047 23.6808 24.1471C23.5757 24.1896 23.4632 24.2104 23.3499 24.2084C23.2366 24.2064 23.1249 24.1816 23.0214 24.1355C22.9179 24.0894 22.8247 24.0229 22.7475 23.94L19.0665 20.2601C16.9743 22.0715 14.2986 23.0666 11.5313 23.0625C5.16375 23.0625 0 17.8988 0 11.5313Z" fill="#272727"/>
</svg>
