<svg width="16" height="16" viewBox="0 0 16 16" fill="none" xmlns="http://www.w3.org/2000/svg">
<path d="M6.10183 3.60537C6.9465 2.09071 7.3685 1.33337 7.99983 1.33337C8.63116 1.33337 9.05316 2.09071 9.89783 3.60537L10.1165 3.99737C10.3565 4.42804 10.4765 4.64337 10.6632 4.78537C10.8498 4.92737 11.0832 4.98004 11.5498 5.08537L11.9738 5.18137C13.6138 5.55271 14.4332 5.73804 14.6285 6.36538C14.8232 6.99204 14.2645 7.64604 13.1465 8.95338L12.8572 9.29138C12.5398 9.66271 12.3805 9.84871 12.3092 10.078C12.2378 10.308 12.2618 10.556 12.3098 11.0514L12.3538 11.5027C12.5225 13.2474 12.6072 14.1194 12.0965 14.5067C11.5858 14.8947 10.8178 14.5407 9.28316 13.834L8.88516 13.6514C8.44916 13.45 8.23116 13.35 7.99983 13.35C7.7685 13.35 7.5505 13.45 7.1145 13.6514L6.71716 13.834C5.18183 14.5407 4.41383 14.894 3.90383 14.5074C3.3925 14.1194 3.47716 13.2474 3.64583 11.5027L3.68983 11.052C3.73783 10.556 3.76183 10.308 3.68983 10.0787C3.61916 9.84871 3.45983 9.66271 3.1425 9.29204L2.85316 8.95338C1.73516 7.64671 1.1765 6.99271 1.37116 6.36538C1.5665 5.73804 2.3865 5.55204 4.0265 5.18137L4.4505 5.08537C4.9165 4.98004 5.14916 4.92737 5.3365 4.78537C5.52316 4.64337 5.64316 4.42804 5.88316 3.99737L6.10183 3.60537Z" fill="#FF6543"/>
</svg>
