<svg width="33" height="33" viewBox="0 0 33 33" fill="none" xmlns="http://www.w3.org/2000/svg">
<path fill-rule="evenodd" clip-rule="evenodd" d="M15.4526 3.84867C14.6084 3.96004 13.5661 4.19929 12.0839 4.54167L10.394 4.93217C9.14275 5.22092 8.27925 5.42167 7.62062 5.64717C6.984 5.86579 6.62375 6.08029 6.35287 6.35254C6.08062 6.62342 5.86612 6.98367 5.6475 7.62029C5.422 8.27892 5.22125 9.14104 4.9325 10.3937L4.542 12.0822C4.19962 13.5658 3.96037 14.608 3.849 15.4523C3.739 16.2745 3.76512 16.8314 3.91087 17.3374C4.05525 17.8434 4.32887 18.3288 4.85687 18.9682C5.4 19.6254 6.15487 20.383 7.2315 21.4597L9.74775 23.9759C11.6164 25.8445 12.946 27.1714 14.09 28.0432C15.2092 28.8984 16.0287 29.2188 16.8606 29.2188C17.6939 29.2188 18.512 28.8984 19.6326 28.0432C20.7752 27.1714 22.1063 25.8432 23.9749 23.9745C25.8449 22.1045 27.1717 20.7749 28.0449 19.6323C28.8974 18.5117 29.2191 17.6935 29.2191 16.8603C29.2191 16.0284 28.8988 15.2103 28.0435 14.0897C27.1717 12.9457 25.8435 11.6147 23.9749 9.74604L21.4586 7.22979C20.3834 6.15454 19.6257 5.39967 18.9699 4.85654C18.3291 4.32854 17.8438 4.05492 17.3377 3.91054C16.8317 3.76479 16.2749 3.74004 15.454 3.84867M15.1845 1.80404C16.1704 1.67342 17.0352 1.67754 17.907 1.92779C18.7801 2.17804 19.5157 2.63317 20.283 3.26567C21.0255 3.87892 21.8505 4.70392 22.8831 5.73654L25.4901 8.34354C27.2914 10.1448 28.7186 11.572 29.6839 12.8398C30.6794 14.1419 31.283 15.3959 31.283 16.8603C31.283 18.326 30.6794 19.58 29.6852 20.8822C28.7186 22.1499 27.2927 23.5772 25.4901 25.3784L25.3801 25.4884C23.5789 27.2897 22.1516 28.7169 20.8839 29.6822C19.5817 30.6777 18.3264 31.2813 16.862 31.2813C15.3976 31.2813 14.1436 30.6777 12.8401 29.6835C11.5737 28.7169 10.1465 27.291 8.34387 25.4884L5.73825 22.88C4.707 21.8488 3.88062 21.0224 3.26737 20.2813C2.63487 19.5127 2.17975 18.777 1.9295 17.9053C1.67925 17.0322 1.67512 16.1673 1.80575 15.1814C1.93087 14.2272 2.19487 13.0887 2.52212 11.6669L2.93462 9.87529C3.20962 8.68867 3.43237 7.72067 3.69775 6.94929C3.9755 6.14217 4.32337 5.46429 4.89537 4.89229C5.46737 4.32029 6.14663 3.97104 6.95237 3.69604C7.72375 3.42929 8.69175 3.20654 9.87837 2.93292L11.67 2.52042C13.0918 2.19042 14.2302 1.92917 15.1845 1.80267M13.0491 10.9932C12.7268 10.6708 12.2895 10.4897 11.8336 10.4897C11.3777 10.4897 10.9405 10.6708 10.6181 10.9932C10.2958 11.3155 10.1146 11.7528 10.1146 12.2087C10.1146 12.6646 10.2958 13.1018 10.6181 13.4242C10.7777 13.5838 10.9672 13.7104 11.1758 13.7968C11.3844 13.8832 11.6079 13.9276 11.8336 13.9276C12.0594 13.9276 12.2829 13.8832 12.4914 13.7968C12.7 13.7104 12.8895 13.5838 13.0491 13.4242C13.2087 13.2645 13.3354 13.075 13.4218 12.8665C13.5081 12.6579 13.5526 12.4344 13.5526 12.2087C13.5526 11.9829 13.5081 11.7594 13.4218 11.5508C13.3354 11.3423 13.2087 11.1528 13.0491 10.9932ZM9.15925 9.53567C9.86835 8.82638 10.8302 8.42783 11.8331 8.4277C12.8361 8.42757 13.798 8.82587 14.5073 9.53498C15.2166 10.2441 15.6151 11.2059 15.6153 12.2089C15.6154 13.2118 15.2171 14.1738 14.508 14.883C13.7987 15.5923 12.8367 15.9908 11.8336 15.9908C10.8305 15.9908 9.86854 15.5923 9.15925 14.883C8.44996 14.1738 8.05149 13.2118 8.05149 12.2087C8.05149 11.2056 8.44996 10.245 9.15925 9.53567ZM17.863 16.6458C17.5451 16.6579 17.2448 16.7947 17.027 17.0267C16.4935 17.5602 16.6337 18.0923 16.7836 18.2422C16.9349 18.392 17.467 18.5309 17.9991 17.9988C19.0771 16.9208 20.9389 16.5633 22.131 17.7554C23.0564 18.6808 23.0495 20.009 22.4954 21.0609C22.6317 21.2591 22.6944 21.4987 22.6728 21.7383C22.6511 21.9778 22.5463 22.2023 22.3767 22.3728C22.207 22.5433 21.983 22.6491 21.7436 22.6719C21.5041 22.6948 21.2642 22.6332 21.0654 22.4978C20.4483 22.8361 19.7326 22.9489 19.0414 22.8168C18.9087 22.7895 18.7826 22.7364 18.6704 22.6604C18.5582 22.5844 18.4621 22.4871 18.3876 22.374C18.313 22.2608 18.2614 22.1341 18.2358 22.0011C18.2103 21.868 18.2111 21.7313 18.2384 21.5985C18.2656 21.4658 18.3188 21.3398 18.3948 21.2276C18.4707 21.1154 18.5681 21.0193 18.6812 20.9447C18.7943 20.8702 18.921 20.8186 19.0541 20.793C19.1871 20.7674 19.3239 20.7683 19.4566 20.7955C19.7 20.8464 20.0932 20.768 20.4301 20.4298C20.9622 19.8963 20.8234 19.3642 20.6735 19.2143C20.5222 19.0644 19.9901 18.9255 19.458 19.4577C18.38 20.5357 16.5182 20.8932 15.3261 19.701C14.4007 18.7757 14.4076 17.4474 14.9617 16.3955C14.8254 16.1974 14.7627 15.9577 14.7844 15.7182C14.806 15.4786 14.9108 15.2542 15.0805 15.0837C15.2501 14.9132 15.4741 14.8074 15.7135 14.7845C15.953 14.7617 16.1929 14.8233 16.3917 14.9587C16.8592 14.7098 17.3721 14.5778 17.8836 14.5833C18.1571 14.5858 18.4184 14.6969 18.61 14.8921C18.8016 15.0873 18.9078 15.3507 18.9052 15.6242C18.9027 15.8977 18.7916 16.159 18.5964 16.3506C18.4012 16.5421 18.1365 16.6483 17.863 16.6458Z" fill="#FF6543"/>
</svg>
