<svg width="33" height="33" viewBox="0 0 33 33" fill="none" xmlns="http://www.w3.org/2000/svg">
<path fill-rule="evenodd" clip-rule="evenodd" d="M16.5 1.71884C13.9865 1.71884 11.9089 1.94021 10.3098 2.20971L10.1255 2.24134C8.73675 2.47371 7.58175 2.66759 6.67837 3.77859C6.10087 4.49221 5.9125 5.26359 5.86987 6.12296L5.19337 6.34846C4.55675 6.56021 3.99712 6.74721 3.55575 6.95346C3.07725 7.17621 2.63862 7.46221 2.30312 7.92834C1.96762 8.39309 1.83425 8.90046 1.77375 9.42434C1.71875 9.90971 1.71875 10.4968 1.71875 11.1692V11.3686C1.71875 11.9213 1.71875 12.4095 1.76 12.8178C1.804 13.2592 1.90162 13.6896 2.145 14.1048C2.39112 14.5215 2.71838 14.8157 3.08413 15.0687C3.421 15.3025 3.84725 15.5403 4.33125 15.8085L7.96125 17.8256C8.70375 19.2845 9.72262 20.5852 11.1238 21.5243C12.3434 22.3438 13.8078 22.8581 15.5416 22.9942C15.4934 23.1154 15.4687 23.2447 15.4688 23.3751V25.7813H13.5025C12.9462 25.7814 12.4071 25.9741 11.9769 26.3268C11.5467 26.6796 11.252 27.1705 11.143 27.716L10.8419 29.2188H8.25C7.9765 29.2188 7.71419 29.3275 7.5208 29.5209C7.3274 29.7143 7.21875 29.9766 7.21875 30.2501C7.21875 30.5236 7.3274 30.7859 7.5208 30.9793C7.71419 31.1727 7.9765 31.2813 8.25 31.2813H24.75C25.0235 31.2813 25.2858 31.1727 25.4792 30.9793C25.6726 30.7859 25.7812 30.5236 25.7812 30.2501C25.7812 29.9766 25.6726 29.7143 25.4792 29.5209C25.2858 29.3275 25.0235 29.2188 24.75 29.2188H22.1581L21.857 27.716C21.748 27.1705 21.4533 26.6796 21.0231 26.3268C20.5929 25.9741 20.0538 25.7814 19.4975 25.7813H17.5312V23.3751C17.5313 23.2447 17.5066 23.1154 17.4584 22.9942C19.1922 22.8567 20.6566 22.3438 21.8762 21.5257C23.2787 20.5852 24.2962 19.2845 25.0387 17.8256L28.6688 15.8085C29.1528 15.5403 29.579 15.3025 29.9159 15.0687C30.2803 14.8157 30.6089 14.5215 30.8536 14.1062C31.0984 13.6896 31.1974 13.2592 31.24 12.8178C31.2812 12.4095 31.2812 11.9213 31.2812 11.3686V11.1692C31.2812 10.4982 31.2812 9.90971 31.2262 9.42434C31.1657 8.90046 31.0338 8.39309 30.6969 7.92834C30.3614 7.46221 29.9228 7.17621 29.4456 6.95209C29.0015 6.74584 28.4432 6.56021 27.8066 6.34846L27.1301 6.12296C27.0889 5.26221 26.9005 4.49221 26.3216 3.77859C25.4196 2.66621 24.2646 2.47234 22.8759 2.24134L22.6903 2.20971C20.6441 1.87428 18.5735 1.71009 16.5 1.71884ZM20.0544 29.2188L19.8344 28.1202C19.8188 28.0423 19.7767 27.9722 19.7153 27.9218C19.6539 27.8714 19.5769 27.8439 19.4975 27.8438H13.5025C13.4231 27.8439 13.3461 27.8714 13.2847 27.9218C13.2233 27.9722 13.1812 28.0423 13.1656 28.1202L12.9456 29.2188H20.0544ZM5.896 8.28859L5.91525 8.28171C6.01425 10.3717 6.24937 12.6817 6.83787 14.8405L5.37213 14.0278C4.83725 13.7295 4.50175 13.5425 4.25975 13.3747C4.037 13.2193 3.96413 13.1272 3.92425 13.0585C3.883 12.9897 3.839 12.8825 3.8115 12.613C3.78235 12.1837 3.77226 11.7534 3.78125 11.3232V11.2228C3.78125 10.4817 3.78262 10.0128 3.8225 9.65809C3.861 9.33084 3.9215 9.20846 3.9765 9.13421C4.03012 9.05859 4.12637 8.96234 4.42475 8.82346C4.74925 8.67221 5.19475 8.52371 5.896 8.28859ZM27.0847 8.28034C26.9871 10.3703 26.7506 12.6803 26.1635 14.8391L27.6279 14.0265C28.1628 13.7281 28.4983 13.5411 28.7402 13.3733C28.963 13.218 29.0359 13.1258 29.0758 13.0571C29.117 12.9883 29.161 12.8811 29.1885 12.6116C29.2174 12.3173 29.2188 11.9337 29.2188 11.3218V11.2215C29.2188 10.4803 29.2174 10.0115 29.1775 9.65671C29.139 9.32946 29.0785 9.20709 29.0235 9.13284C28.9699 9.05721 28.8736 8.96096 28.5752 8.82209C28.2507 8.67084 27.8053 8.52096 27.104 8.28584L27.0847 8.28034ZM10.6535 4.24334C12.5861 3.92714 14.5417 3.7726 16.5 3.78134C18.8925 3.78134 20.8546 3.99171 22.3465 4.24334C24.0061 4.52384 24.354 4.62834 24.7211 5.07934C25.0814 5.52209 25.1157 5.94284 25.0415 7.80596C24.9177 10.9107 24.508 14.263 23.2402 16.8122C22.6133 18.069 21.7937 19.0975 20.7281 19.8125C19.668 20.5233 18.2999 20.9688 16.5 20.9688C14.7001 20.9688 13.3334 20.5233 12.2732 19.8125C11.2062 19.0975 10.3868 18.069 9.76112 16.8108C8.492 14.263 8.08362 10.9121 7.95988 7.80459C7.88562 5.94284 7.91862 5.52209 8.28025 5.07934C8.646 4.62834 8.99388 4.52384 10.6535 4.24334Z" fill="#FF6543"/>
</svg>
